<svg width="32" height="32" viewBox="0 0 32 32" fill="none" xmlns="http://www.w3.org/2000/svg">
<path fill-rule="evenodd" clip-rule="evenodd" d="M19 8V9.02924H22V11.0035H10V9.02924H13V8H19ZM10 21.7731C10 23.002 11 24 12.2314 24H19.7656C20.9971 24 21.9971 23.002 21.9971 21.7731V12.0234H10V21.7731ZM12 14.0195H20V21.2616C20 21.6702 19.666 22.0039 19.2559 22.0039H12.7441C12.334 22.0039 12 21.6702 12 21.2616V14.0195ZM17 14.9864H19V20.9747H17V14.9864ZM15 14.9864H13V20.9747H15V14.9864Z" fill="#6B6C7E"/>
</svg>
