<svg width="16" height="16" viewBox="0 0 16 16" fill="none" xmlns="http://www.w3.org/2000/svg">
<path fill-rule="evenodd" clip-rule="evenodd" d="M1.46582 0H14.5342C15.3408 0 16 0.659363 15.9971 1.46564V5.5531C15.9971 6.35938 15.3379 7.01874 14.5312 7.01874H1.46582C0.65918 7.01874 0 6.35938 0 5.5531V1.46564C0 0.659363 0.65918 0 1.46582 0Z" fill="#6B6C7E"/>
<path fill-rule="evenodd" clip-rule="evenodd" d="M14.5342 8.97815H1.46582C0.65918 8.97815 0 9.63751 0 10.4469V14.5344C0 15.3406 0.65918 16 1.46582 16H14.5312C15.3379 16 15.9971 15.3406 15.9971 14.5344V10.4469C16 9.63751 15.3408 8.97815 14.5342 8.97815Z" fill="#6B6C7E"/>
</svg>
