<svg width="32" height="32" viewBox="0 0 32 32" fill="none" xmlns="http://www.w3.org/2000/svg">
<path fill-rule="evenodd" clip-rule="evenodd" d="M20.7117 23.8682C20.8279 23.9372 20.9568 23.9717 21.0847 23.9717H21.0945C21.4958 23.9717 21.8191 23.6454 21.8191 23.247C21.8191 23.1247 21.7908 23.0117 21.738 22.9113L19.9089 17.7694L23.698 14.7545C23.9402 14.5631 24.031 14.24 23.9304 13.9482C23.8298 13.6564 23.5544 13.4619 23.2468 13.4619H18.5349L16.6775 8.49878C16.5701 8.21643 16.3005 8.0282 15.9998 8.0282C15.698 8.0282 15.4285 8.21643 15.322 8.49878L13.4646 13.4619H8.75561C8.448 13.4619 8.17554 13.6564 8.07202 13.9482C7.9685 14.24 8.06225 14.5631 8.30054 14.7545L12.0964 17.7725L10.3552 22.8831C10.2585 23.1717 10.3494 23.4886 10.5847 23.68C10.8201 23.8713 11.1492 23.8964 11.4099 23.7427L15.9968 21.0384L20.7117 23.8682ZM16.3738 19.5733C16.2576 19.5043 16.1287 19.4698 15.9998 19.4698C15.8718 19.4698 15.7458 19.5043 15.6326 19.5702L12.3611 21.4996L13.6374 17.7568C13.7351 17.4682 13.6404 17.1482 13.4021 16.9568L10.8298 14.9113H13.9675C14.2683 14.9113 14.5378 14.7231 14.6443 14.4408L15.9998 10.8204L17.3552 14.4408C17.4587 14.7231 17.7322 14.9113 18.033 14.9113H21.1707L18.5974 16.9568C18.3562 17.1482 18.2624 17.4745 18.366 17.7662L19.7244 21.5843L16.3738 19.5733Z" fill="#6B6C7E"/>
</svg>
