<svg width="32" height="32" viewBox="0 0 32 32" fill="none" xmlns="http://www.w3.org/2000/svg">
<path d="M23.9581 13.9432C23.8559 13.6515 23.5808 13.4554 23.2716 13.4554H18.5451L16.681 8.47376C16.5746 8.18952 16.3028 8.0017 15.9995 8.0017C15.6961 8.0017 15.4244 8.18952 15.3188 8.47376L13.4546 13.4554H8.72736C8.41818 13.4554 8.1431 13.6506 8.04086 13.9432C7.93862 14.2349 8.03255 14.559 8.27441 14.7519L12.0833 17.782L10.3347 22.9107C10.2367 23.1983 10.328 23.5174 10.5641 23.7094C10.7993 23.9014 11.1301 23.9263 11.3927 23.7717L15.9954 21.0574L20.7285 23.8964C20.844 23.9662 20.9736 24.0003 21.1025 24.0003C21.1033 24.0003 21.1049 24.0003 21.1066 24.0003C21.5072 23.987 21.8371 23.6753 21.8371 23.2731C21.8371 23.1517 21.808 23.037 21.7549 22.9365L19.9206 17.7778L23.7246 14.7518C23.9664 14.5598 24.0603 14.2349 23.9581 13.9431V13.9432Z" fill="#6B6C7E"/>
</svg>
